<svg width="381" height="179" viewBox="0 0 381 179" fill="none" xmlns="http://www.w3.org/2000/svg">
<path d="M1 1L14.7411 5.79242L50.8516 9.94585L76.4165 12.5018L106.136 17.6137L137.453 22.7256L156.946 25.6011L180.274 29.1155L210.313 35.5054L227.889 39.9783L250.258 45.0903L269.432 49.2437L301.068 57.5505L262.082 51.7996L231.404 46.6877L193.376 41.2563L153.431 35.5054L128.505 32.63L101.662 29.1155L77.0556 26.5596L56.6037 24.9621L108.373 38.3809L147.679 51.7996L180.274 62.0235L218.302 77.9982L254.412 95.2509L280.616 108.35L308.738 124.964L330.148 139.98L352.837 156.274L368.496 168.415L376.165 174.486L380 178" stroke="black"/>
</svg>
